PathFileType	4	(X/Y/Z)	Patient5_TMGait_0pt45_1_right_13.trc.trc
DataRate	CameraRate	NumFrames	NumMarkers	Units	OrigDataRate	OrigDataStartFrame	OrigNumFrames
63.348416289593	63.348416289593	4	32	mm	63.348416289593	18	       141
Frame#	Time	R.ASIS			L.ASIS			Chest			R.Shoulder			Neck			L.Shoulder			L.Elbow			L.Wrist			R.Elbow			R.Wrist			L.Thigh.Superior			L.Thigh.Lateral			L.Thigh.Inferior			L.Patella			L.Shank.Superior			L.Shank.Lateral			L.Shank.Inferior			L.Heel			L.Midfoot.Lateral			L.Midfoot.Superior			L.Toe			R.Thigh.Superior			R.Thigh.Lateral			R.Thigh.Inferior			R.Patella			R.Shank.Superior			R.Shank.Lateral			R.Shank.Inferior			R.Heel			R.Midfoot.Lateral			R.Midfoot.Superior			R.Toe			
		X1	Y1	Z1	X2	Y2	Z2	X3	Y3	Z3	X4	Y4	Z4	X5	Y5	Z5	X6	Y6	Z6	X7	Y7	Z7	X8	Y8	Z8	X9	Y9	Z9	X10	Y10	Z10	X11	Y11	Z11	X12	Y12	Z12	X13	Y13	Z13	X14	Y14	Z14	X15	Y15	Z15	X16	Y16	Z16	X17	Y17	Z17	X18	Y18	Z18	X19	Y19	Z19	X20	Y20	Z20	X21	Y21	Z21	X22	Y22	Z22	X23	Y23	Z23	X24	Y24	Z24	X25	Y25	Z25	X26	Y26	Z26	X27	Y27	Z27	X28	Y28	Z28	X29	Y29	Z29	X30	Y30	Z30	X31	Y31	Z31	X32	Y32	Z32	

18	21.648357142857	982.464612767060	995.956386285224	517.642371748931	971.412654469723	959.747989687618	279.202103655840	1018.087788956749	1444.813689545054	392.908808151098	907.336719904612	1505.894055944939	554.526446974961	890.956486716621	1562.202785628964	368.432986424948	962.637123710314	1502.127669184210	192.212326281756	927.962949417867	1175.350903941893	67.577306541165	1037.731726441540	910.592843810598	117.546583914118	825.633190792487	1188.693001952640	699.411680760926	1045.349802165919	1011.770191012369	627.594002851491	962.816160879664	731.508696375505	284.486961791020	874.049184835548	671.179238670270	248.860562301406	935.454591101691	603.311149665118	309.191754543340	908.364260303060	487.745695939881	316.923572634865	846.652617461163	394.072039527654	343.557964289987	763.743837614453	337.358602658587	270.339835577054	794.692048631447	278.378318680247	357.808868456006	626.356099645008	56.298462818012	366.468324000526	714.577176188381	29.718951464933	307.457028339417	812.429649130128	89.532446931905	350.361477442631	917.899369726254	44.694086102765	357.180509850802	1045.715979396026	781.725124912242	556.181153032694	987.102998564080	693.370048044466	623.514489511570	1075.261058562950	655.797143488118	550.354986369283	1102.681163093500	562.002810246162	591.393976416568	1070.964503814177	451.044054648484	561.796594917153	1002.222218227137	380.425395215136	644.466055065808	1064.053403556785	310.757414828855	568.135947129128	963.190488535653	76.485030788059	544.338720464225	1041.425475115567	48.579080350960	618.853790972685	1141.325396683649	124.152288578411	607.737837791170	1247.652764027691	91.239550113292	609.938816318454	
19	21.664142857143	982.487143029241	994.051587736742	520.090670700001	970.545243591893	958.899839728331	281.266333639708	1017.384551652376	1443.739370457268	395.933342772580	907.158902780752	1504.387525287972	558.154054894139	889.949440066478	1561.002495937574	372.206055804482	960.914708281801	1501.340268055298	195.455987376341	923.286370591270	1175.356514943002	69.743784168169	1030.615568181283	909.245600121457	118.308114911815	825.686954485692	1186.846523388309	702.338313691330	1045.230760371128	1010.073137347758	629.591920910592	960.196271985495	730.660571128598	285.840814214187	870.894270719343	671.049971901206	250.028142781170	931.745472128386	602.620593413376	310.230277230975	903.434705981963	487.192200820114	317.527428817234	841.170212604233	393.933661200144	343.928301119119	757.668301853377	337.982237251699	270.768206979237	788.644581358247	278.466462361244	357.945458068578	619.289479569698	56.808691121911	366.346649521255	707.466082576531	29.936571213913	307.401553304945	805.413176502486	89.600202662126	350.161743943091	910.776694091292	44.723504525124	357.069614331142	1043.592703732274	777.737962555060	557.793493679543	983.439014516497	689.220111099475	623.664899025307	1071.500535698128	651.314189168546	550.542885346870	1097.342863528249	556.846824610276	590.757512724167	1064.592643347198	446.383449617384	560.104558842938	994.915944797454	375.870702784591	642.099380126952	1056.234691322974	306.122546393011	565.387215694261	952.810797001191	73.327862400977	539.670731073420	1030.612489750660	43.842102304036	614.030263190738	1131.547611883832	118.109588821816	603.488348140003	1237.395936106756	83.685781271876	605.413759638812	
20	21.679928571429	982.707483574331	992.010082598332	522.635138543147	969.820370034147	957.973485016964	283.456943610080	1016.905284342889	1442.538441510233	399.145676261572	907.239230456976	1502.763366083805	561.987507668584	889.165728610999	1559.692205477565	376.202848831487	959.438959160192	1500.467572819967	198.914049061741	918.859815712344	1175.321350454518	72.111952181935	1023.900865681780	907.951812546123	119.234050819310	825.934825754257	1184.883989348659	705.426430343179	1045.325039480066	1008.270165144553	631.793171478051	957.704829970332	729.756109960248	287.169735023439	867.804736147585	670.896408044501	251.279236642499	928.176194808438	601.871930585405	311.211143198367	898.662038233203	486.577659311592	318.032751512278	835.813585793151	393.758358059358	344.248352140724	751.640134323467	338.636812679447	271.211275400870	782.676660710395	278.545507223384	358.035554963087	612.225596691626	57.345371503393	366.180804053027	700.352159192370	30.142473076924	307.321694161544	798.397780827140	89.662354591442	349.931404117054	903.643361540699	44.732925766198	356.975681071245	1041.462701779643	773.515601011175	559.565586253265	979.596220897560	684.906901560751	623.761899760584	1067.519826975749	646.569762352659	550.666195043458	1091.683199322398	551.440352718423	589.972143929528	1057.929228839660	441.583721347131	558.233143607565	987.366206713614	371.186001158933	639.598883970782	1048.145133000197	301.353332866372	562.450788328204	942.201462468487	70.056115056253	535.039363901154	1019.620263758443	39.300014866570	609.283458560302	1121.595408830999	112.091162105568	598.830495919105	1226.942989369827	76.103512721162	600.521201889278	
21	21.695714285714	983.120387015235	989.838477985999	525.267468988011	969.243510827583	956.974955528921	285.778460733185	1016.664296400531	1441.231207860348	402.555878116241	907.595680324575	1501.036621143606	566.040567251355	888.611359925157	1558.288489737891	380.435644319772	958.188986365500	1499.516634239562	202.593995943602	914.663181415740	1175.247483931029	74.704051880062	1017.610669156393	906.723395603247	120.293755007539	826.410106715380	1182.819751782112	708.710817843130	1045.633163118207	1006.354284641587	634.190933254772	955.393367065289	728.808640867057	288.483232599039	864.830608999261	670.720499694650	252.624140251702	924.812133392947	601.078821814441	312.139574032777	894.102673572164	485.873262672370	318.449848353180	830.632196726043	393.540110164502	344.525693587304	745.705122511598	339.328084193171	271.674726180722	776.822835550430	278.618182285645	358.086209822293	605.169815772962	57.931116228483	365.968831174959	693.238693237542	30.357044910634	307.213887492043	791.388099640490	89.726401557563	349.669787614604	896.486019988291	44.718899232458	356.904898006788	1039.312322362047	769.124389351358	561.422417536816	975.606243327443	680.516732504893	623.817892316315	1063.325940002231	641.655635807101	550.700480995838	1085.781777414008	545.908735884647	589.020411070862	1051.088823594589	436.756858556406	556.206820463220	979.747035923680	366.467072770718	637.027340869849	1039.962769980538	296.563420980281	559.385921879233	931.648078143847	66.696767744126	530.604623366206	1008.745779134412	35.157723868796	604.833024470477	1111.716283234773	106.344585551763	593.864426898364	1216.576022336562	68.809018651492	595.450954807747	
